<svg width="64" height="64" viewBox="0 0 64 64" fill="none" xmlns="http://www.w3.org/2000/svg">
<rect width="64" height="64" rx="10" fill="#29A35A"/>
<path d="M20.4844 44L19.3594 39.7188H11.9375L10.7812 44H4L11.4531 21.0625H19.6875L27.2344 44H20.4844ZM18.0781 34.6562L17.0938 30.9062C16.9896 30.5 16.8385 29.9219 16.6406 29.1719C16.4427 28.4115 16.2448 27.6302 16.0469 26.8281C15.8594 26.0156 15.7135 25.349 15.6094 24.8281C15.5156 25.349 15.3802 25.9948 15.2031 26.7656C15.0365 27.526 14.8594 28.2812 14.6719 29.0312C14.4948 29.7812 14.3385 30.4062 14.2031 30.9062L13.2188 34.6562H18.0781ZM39.6719 44L35 27.5469H34.8594C34.901 27.974 34.9427 28.5521 34.9844 29.2812C35.0365 30.0104 35.0833 30.7969 35.125 31.6406C35.1667 32.4844 35.1875 33.2969 35.1875 34.0781V44H29.7188V21.1562H37.9375L42.7031 37.375H42.8281L47.5 21.1562H55.7344V44H50.0625V33.9844C50.0625 33.2656 50.0729 32.4948 50.0938 31.6719C50.125 30.8385 50.1562 30.0573 50.1875 29.3281C50.2292 28.5885 50.2656 28.0052 50.2969 27.5781H50.1562L45.5469 44H39.6719Z" fill="white"/>
</svg>
